<?xml version="1.0" encoding="UTF-8" standalone="no"?>
<!-- Created with Inkscape (http://www.inkscape.org/) -->

<svg
   xmlns:dc="http://purl.org/dc/elements/1.1/"
   xmlns:cc="http://creativecommons.org/ns#"
   xmlns:rdf="http://www.w3.org/1999/02/22-rdf-syntax-ns#"
   xmlns:svg="http://www.w3.org/2000/svg"
   xmlns="http://www.w3.org/2000/svg"
   version="1.1"
   width="705.33447"
   height="885.79675"
   viewBox="0 0 705.33447 885.79675"
   id="logo_-_color"
   xml:space="preserve"><metadata
     id="metadata3197"><rdf:RDF><cc:Work
         rdf:about=""><dc:format>image/svg+xml</dc:format><dc:type
           rdf:resource="http://purl.org/dc/dcmitype/StillImage" /><dc:title></dc:title></cc:Work></rdf:RDF></metadata><defs
     id="defs3195" /><g
     transform="translate(-264.92625,-263.10175)"
     id="g3179"><g
       id="g3181"><path
         d="m 647.745,723.513 c -8.357,4.775 -18.56,10.603 -22.673,12.948 -4.113,2.345 -10.844,2.346 -14.957,0 -4.113,-2.346 -14.316,-8.173 -22.673,-12.948 L 421.585,628.741 c -8.357,-4.775 -22.032,-4.775 -30.389,0 l -120.002,68.576 c -8.357,4.775 -8.357,12.59 0,17.364 l 331.205,189.246 c 8.357,4.774 22.032,4.774 30.389,0 L 963.993,714.681 c 8.356,-4.774 8.357,-12.589 0,-17.364 L 843.991,628.741 c -8.357,-4.775 -22.032,-4.775 -30.389,0 l -165.857,94.772 z"
         id="path3183"
         style="fill:#128669" /></g><g
       id="g3185"><path
         d="m 647.746,964.905 c -8.357,4.774 -18.561,10.612 -22.674,12.974 -4.113,2.362 -10.844,2.361 -14.957,0 -4.113,-2.361 -14.316,-8.199 -22.674,-12.974 L 421.586,870.157 c -8.357,-4.774 -22.033,-4.774 -30.391,0 l -120,68.553 c -8.357,4.774 -8.358,12.588 -10e-4,17.362 l 331.205,189.246 c 8.357,4.774 22.032,4.774 30.389,0 L 963.993,956.072 c 8.356,-4.774 8.356,-12.588 -0.001,-17.362 l -120,-68.553 c -8.357,-4.774 -22.033,-4.774 -30.391,0 l -165.855,94.748 z"
         id="path3187"
         style="fill:#1d8dcd" /></g><g
       id="g3189"><path
         d="m 963.993,473.319 c 8.357,-4.775 8.357,-12.59 0,-17.365 L 632.788,266.683 c -8.356,-4.775 -22.031,-4.775 -30.388,0 L 271.194,455.954 c -8.356,4.775 -8.356,12.59 0,17.365 L 602.4,662.591 c 8.356,4.775 22.031,4.775 30.388,0 L 963.993,473.319 z"
         id="path3191"
         style="fill:#df283f" /></g></g><g
     id="text4207"
     style="font-size:380px;font-style:normal;font-variant:normal;font-weight:bold;font-stretch:normal;line-height:125%;letter-spacing:0px;word-spacing:0px;fill:#ffffff;fill-opacity:1;stroke:none;font-family:Courier New;-inkscape-font-specification:Sans Bold"><path
       d="m 309.77539,228.16122 0,47.8711 13.73047,0 c 9.15355,4e-5 15.64768,1.79365 19.48242,5.38086 3.95822,3.46357 5.93739,8.04039 5.9375,13.73047 -1.1e-4,5.56642 -1.97928,10.14323 -5.9375,13.73046 -3.83474,3.46355 -10.32887,5.19532 -19.48242,5.19532 l -57.70508,0 c -9.15367,0 -15.70965,-1.73177 -19.66797,-5.19532 -3.83464,-3.58723 -5.75196,-8.22589 -5.75195,-13.91601 -1e-5,-5.56638 1.97916,-10.08135 5.9375,-13.54492 3.95832,-3.58721 10.45245,-5.38082 19.48242,-5.38086 l 5.9375,0 0,-148.8086 -5.9375,0 c -9.15367,1.9e-4 -15.70965,-1.73158 -19.66797,-5.19531 -3.83464,-3.58704 -5.75196,-8.22571 -5.75195,-13.91601 -1e-5,-5.6899 1.91731,-10.266715 5.75195,-13.730473 3.95832,-3.587016 10.5143,-5.380634 19.66797,-5.380859 l 86.09375,0.185547 c 26.84231,2.25e-4 47.62353,6.679906 62.34375,20.039065 14.84356,13.23587 22.26542,29.37843 22.26563,48.42773 -2.1e-4,11.87515 -3.46374,22.6987 -10.39063,32.4707 -6.92727,9.64856 -17.37973,18.24555 -31.35742,25.79102 8.0402,7.05087 16.63719,16.08081 25.79101,27.08984 5.68992,7.05085 13.35918,18.05995 23.00782,33.02735 9.64822,4e-5 16.01865,0.98962 19.11133,2.96875 5.56617,3.83466 8.34937,9.21552 8.3496,16.14258 -2.3e-4,5.56642 -1.91755,10.14323 -5.75195,13.73046 -3.83486,3.46355 -10.32899,5.19532 -19.48242,5.19532 l -21.70898,0 c -30.80094,-47.62365 -56.34454,-76.25969 -76.63086,-85.90821 l -37.66602,0 m 0,-38.03711 29.6875,0 c 11.009,1.3e-4 20.84297,-1.66979 29.50195,-5.00976 11.62746,-4.45299 19.42042,-9.15351 23.37891,-14.10156 4.08187,-4.94777 6.12288,-9.83383 6.12305,-14.65821 -1.7e-4,-7.17431 -3.8348,-13.79214 -11.50391,-19.85351 -7.66941,-6.18471 -18.86406,-9.27716 -33.58398,-9.27735 l -43.60352,0 0,62.90039"
       id="path3814" /></g></svg>